<svg width="120" height="128" viewBox="0 0 120 128" fill="none" xmlns="http://www.w3.org/2000/svg">
<path d="M53.6158 47.9799C57.3131 41.8229 62.6801 36.7881 69.0846 33.5012V26.3464H76.5574L61.3464 0L46.1354 26.3464H53.6158V47.9799Z" fill="#C026D3"/>
<path d="M86.6258 34.6773C80.1829 34.6773 74.1734 36.5253 69.0846 39.7198C60.2756 45.2574 54.2494 54.818 53.6158 65.8085C53.5697 66.451 53.5543 67.0999 53.5543 67.7501V68.0438C53.276 71.8719 51.8371 75.3755 49.5864 78.2148C46.1674 82.561 40.8543 85.3542 34.9063 85.3542C24.5891 85.3542 16.1968 76.9619 16.1968 66.6447V33.9207H0.728027V66.6447C0.728027 85.4863 16.0583 100.823 34.9063 100.823C41.7841 100.823 48.1911 98.7775 53.5568 95.27V127.25H69.0256V95.7381C74.1259 98.9583 80.1636 100.823 86.6271 100.823C104.865 100.823 119.7 85.9877 119.7 67.7501C119.7 49.5126 104.865 34.6773 86.6271 34.6773H86.6258ZM86.6258 85.3542C77.1358 85.3542 69.3783 77.8057 69.0372 68.4003C69.0372 68.3926 69.0295 68.3926 69.0372 68.3849C69.068 67.8053 69.0833 67.2243 69.0833 66.6447V66.351C69.7951 57.2944 77.3897 50.1474 86.6246 50.1474C96.3313 50.1474 104.229 58.0446 104.229 67.7514C104.229 77.4582 96.3313 85.3555 86.6246 85.3555L86.6258 85.3542Z" fill="#A78BFA"/>
</svg>
