<svg width="75" height="80" viewBox="0 0 75 80" fill="none" xmlns="http://www.w3.org/2000/svg">
<path d="M33.8154 29.8814C36.118 26.0469 39.4605 22.9112 43.4492 20.8642V16.4083H48.1032L38.6299 0L29.1566 16.4083H33.8154V29.8814Z" fill="#C026D3"/>
<path d="M54.3737 21.5967C50.3611 21.5967 46.6184 22.7476 43.4492 24.7372C37.963 28.1859 34.2099 34.1402 33.8154 40.9849C33.7866 41.3851 33.777 41.7892 33.777 42.1942V42.3771C33.6037 44.7611 32.7076 46.9432 31.3059 48.7115C29.1766 51.4182 25.8676 53.1578 22.1633 53.1578C15.7378 53.1578 10.5112 47.9311 10.5112 41.5057V21.1255H0.87738V41.5057C0.87738 53.24 10.4249 62.7916 22.1633 62.7916C26.4467 62.7916 30.4369 61.5177 33.7786 59.3333V79.2502H43.4125V59.6248C46.5888 61.6303 50.3491 62.7916 54.3745 62.7916C65.7327 62.7916 74.9719 53.5523 74.9719 42.1942C74.9719 30.836 65.7327 21.5967 54.3745 21.5967H54.3737ZM54.3737 53.1578C48.4634 53.1578 43.6321 48.4567 43.4196 42.5991C43.4196 42.5943 43.4149 42.5943 43.4196 42.5895C43.4388 42.2285 43.4484 41.8667 43.4484 41.5057V41.3228C43.8917 35.6824 48.6215 31.2313 54.3729 31.2313C60.4182 31.2313 65.3365 36.1497 65.3365 42.1949C65.3365 48.2402 60.4182 53.1586 54.3729 53.1586L54.3737 53.1578Z" fill="#A78BFA"/>
</svg>
